<svg xmlns="http://www.w3.org/2000/svg" version="1.1" xmlns:xlink="http://www.w3.org/1999/xlink" xmlns:svgjs="http://svgjs.dev/svgjs" width="1500" height="1500" viewBox="0 0 1500 1500"><rect width="1500" height="1500" fill="#000000"></rect><g transform="matrix(0.6666666666666666,0,0,0.6666666666666666,250.00000000000017,187.66666666666674)"><svg viewBox="0 0 320 360" data-background-color="#ffffff" preserveAspectRatio="xMidYMid meet" height="1687" width="1500" xmlns="http://www.w3.org/2000/svg" xmlns:xlink="http://www.w3.org/1999/xlink"><g id="tight-bounds" transform="matrix(1,0,0,1,0,0)"><svg viewBox="0 0 320 360" height="360" width="320"><g><svg></svg></g><g><svg viewBox="0 0 320 360" height="360" width="320"><g><path d="M20.961 227.22l3.726 4.658-1.863-6.056c-0.466-2.795-3.726 0.466-1.863 1.398M25.153 224.425c1.397 2.329 2.795 4.658 2.795 6.987 0 3.261 2.795 4.658 5.123 5.589-3.261-3.726-5.124-13.974-7.918-12.576M204.017 26.929c7.918 0 15.371-0.932 23.756 0.931 20.495 5.124 37.729 15.371 49.374 29.811l32.606 52.169c1.397 13.042 4.192 27.482 3.726 43.319 3.261 0 2.795-4.658 6.521-5.59-3.726 9.316-5.59 20.961-6.521 34.469-2.329-7.453 0-18.632 0.466-24.687-3.261 5.124-5.124 1.397-5.124-0.932 0.466-3.726-1.397-3.261-2.795-4.658-5.124-4.658-8.384-9.782-12.11-17.7 2.329-6.055 2.795-14.905-4.658-19.563-2.329-1.397-5.124-3.726-6.521-7.453-1.863-5.124-5.124-11.179-4.193-19.097 0.466-2.329-6.987 5.124-11.179 1.863-18.166-12.576-36.332-27.016-58.224-39.127-11.645 0-20.029-4.192-24.221-9.316-3.726-4.658-0.932-10.713 4.658-11.179 3.261 0 6.987-0.932 9.782 0.932 0.466-1.863 2.329-4.192 4.657-4.192M157.904 16.215l0.932 0.466c4.658 0.932 6.987 7.453 12.11 5.124 0 3.261 0.466 6.521-0.466 8.85-1.397 3.726-5.59 3.726-8.85 3.726-31.208-1.863-49.374 11.179-68.471 22.358-5.124 3.261-10.713 5.59-14.906 9.782-20.029 18.632-41.921 35.866-47.045 70.335l-4.192 38.195c-0.466 4.192-5.124 8.384-4.192 13.508l3.26 22.824c-3.261-3.261-5.124 0.932-4.192 2.795 0.466 1.397 2.329 6.055 5.124 1.863 3.726 6.987 7.453 20.495 12.576 26.55 15.837 18.632 36.332 35.4 53.101 52.169 4.192-0.932 7.453-0.932 8.384-3.727 1.397 2.795-1.397 5.59-3.726 6.056 7.453 4.658 15.837 8.85 27.016 9.781 14.44 0.932 27.948 3.261 40.524 6.522 6.521-1.863 13.042-2.795 20.029-3.261 2.329 0 3.726-3.726 6.521-4.658l0.466-4.658c2.795 4.192 2.329-1.397 0.466-4.192 3.261 2.795 4.192 5.124 5.589 6.987 0-1.397 3.726-6.521 3.727-0.466l0.931-6.055c1.397-0.932 1.863 5.124 3.261 0.931 1.397-4.192 4.192-0.932 6.987-2.329-0.932 1.863-0.466 5.59 2.794 3.261l3.727-3.261c2.329 5.59 6.055 3.261 7.918 2.329 20.495-13.042 40.99-28.413 60.553-43.784l-0.466 6.055 2.329-7.453c2.329 2.329 4.192 0.466 5.124-0.931 2.795-4.658 6.521-9.316 12.577-13.508-7.453 20.029-16.303 35.866-27.482 48.908l-4.658 5.59c0 3.261-0.932 7.453-4.658 7.918-1.863 0.466-5.59-0.932-8.384 1.863-1.397 1.863 3.261 5.59-0.466 2.795-3.261-2.329-6.521 0-10.248 0.932-2.795 0.932 1.863 3.726 2.795 5.589 0.932 1.863 1.863 3.726 1.398 6.056l-5.124-5.59c-6.055 3.261-9.782 9.316-14.906 13.974-2.329 1.863-1.397 5.124-1.397 7.918-3.261 0-6.987-0.932-8.85 0.932-1.397 1.863-0.932 4.658-0.932 7.453-4.658-0.466-5.124-7.453-9.315-6.056-4.192 0.932-8.85 1.397-12.577 3.727 2.795 5.59-4.658 2.329-3.726 3.26-6.987-4.192-13.042-7.453-20.495-4.658-15.837-5.124-35.4-2.795-49.84-0.931 0-2.329 0.466-4.658-0.466-5.124-0.932 2.329-3.726 1.397-3.26 1.397-8.85-6.055-17.7-9.782-27.016-14.905-8.384 0.932-16.303-3.261-18.632-5.59-6.521-6.055-13.974-2.795-20.029-4.192-13.042-3.261-17.7-16.769-19.098-26.084-0.932-4.658-4.658-6.521-6.055-6.056-6.055-19.563-15.371-37.263-22.824-55.429-1.863-4.658-1.397-9.316-1.397-14.44 2.329 0.932 4.658 0.466 4.192-2.794-2.329-15.371-7.918-27.016-13.974-38.195 3.261-15.837 3.726-34.469 11.179-48.443 6.521-12.576 18.632-19.098 27.016-29.811 2.795-3.726 2.795-8.85 5.59-12.11 9.316-9.316 18.632-19.098 28.879-27.482 4.658-3.726 10.247 0 17.234-1.397 2.329-8.384 11.645-15.837 20.495-13.508 3.726 0.932 11.179-8.85 13.508-9.782 3.726-1.397 1.863 3.726 1.863 6.987 8.85-6.987 20.961-10.713 32.14-14.906" fill="#ffffff" fill-rule="nonzero" stroke="none" stroke-width="1" stroke-linecap="butt" stroke-linejoin="miter" stroke-miterlimit="10" stroke-dasharray="" stroke-dashoffset="0" font-family="none" font-weight="none" font-size="none" text-anchor="none" style="mix-blend-mode: normal" data-fill-palette-color="tertiary"></path></g><g transform="matrix(1,0,0,1,64,163.3868126636515)"><svg viewBox="0 0 192 33.22637467269698" height="33.22637467269698" width="192"><g><svg viewBox="0 0 192 33.22637467269698" height="33.22637467269698" width="192"><g><svg viewBox="0 0 192 33.22637467269698" height="33.22637467269698" width="192"><g><svg viewBox="0 0 192 33.22637467269698" height="33.22637467269698" width="192"><g id="textblocktransform"><svg viewBox="0 0 192 33.22637467269698" height="33.22637467269698" width="192" id="textblock"><g><svg viewBox="0 0 192 33.22637467269698" height="33.22637467269698" width="192"><g transform="matrix(1,0,0,1,0,0)"><svg width="192" viewBox="4.25 -36 210.03 36.35" height="33.22637467269698" data-palette-color="#000000"><path d="M27-35L31-35 31 0 26.95 0 8.25-28.6 8.25 0 4.25 0 4.25-35 8.3-35 27-6.45 27-35ZM39.85 0L39.85-25 43.55-25 43.55 0 39.85 0ZM41.75-30L41.75-30Q40.6-30 39.85-30.75 39.1-31.5 39.1-32.6L39.1-32.6Q39.1-33.75 39.85-34.5 40.6-35.25 41.75-35.25L41.75-35.25Q42.8-35.25 43.57-34.5 44.35-33.75 44.35-32.6L44.35-32.6Q44.35-31.5 43.57-30.75 42.8-30 41.75-30ZM49.45-25L53.45-25 61.35-4.2 69.3-25 73.25-25 63.25 0 59.35 0 49.45-25ZM88.34 0.35L88.34 0.35Q84.84 0.35 82.12-1.35 79.39-3.05 77.84-6 76.29-8.95 76.29-12.75L76.29-12.75Q76.29-16.4 77.84-19.25 79.39-22.1 82.09-23.73 84.79-25.35 88.24-25.35L88.24-25.35Q91.64-25.35 94.32-23.85 96.99-22.35 98.49-19.7 99.99-17.05 99.89-13.65L99.89-13.65Q99.89-13.1 99.84-12.5 99.79-11.9 99.74-11.2L99.74-11.2 80.39-11.2Q80.49-8.85 81.54-7.05 82.59-5.25 84.32-4.23 86.04-3.2 88.24-3.2L88.24-3.2Q91.14-3.2 93.17-4.3 95.19-5.4 96.09-7.45L96.09-7.45 99.34-6.15Q97.84-3 94.99-1.33 92.14 0.35 88.34 0.35ZM80.44-14.45L95.79-14.45Q95.84-16.6 94.87-18.25 93.89-19.9 92.14-20.85 90.39-21.8 88.09-21.8L88.09-21.8Q86.09-21.8 84.44-20.85 82.79-19.9 81.72-18.23 80.64-16.55 80.44-14.45L80.44-14.45ZM125.34-19.95L125.34-19.95 124.94-19.9 124.94-36 128.69-36 128.69 0 125.24 0 124.99-4.65Q123.84-2.55 121.57-1.1 119.29 0.35 115.94 0.35L115.94 0.35Q112.49 0.35 109.92-1.23 107.34-2.8 105.92-5.7 104.49-8.6 104.49-12.5L104.49-12.5Q104.49-16.4 105.92-19.28 107.34-22.15 109.92-23.75 112.49-25.35 115.94-25.35L115.94-25.35Q119.49-25.35 121.84-23.8 124.19-22.25 125.34-19.95ZM108.54-12.5L108.54-12.5Q108.54-8.2 110.74-5.68 112.94-3.15 116.74-3.15L116.74-3.15Q119.09-3.15 120.94-4.25 122.79-5.35 123.87-7.45 124.94-9.55 124.94-12.5L124.94-12.5Q124.94-15.45 123.87-17.53 122.79-19.6 120.94-20.73 119.09-21.85 116.74-21.85L116.74-21.85Q112.99-21.85 110.77-19.33 108.54-16.8 108.54-12.5ZM137.09 0L137.09-25 140.79-25 140.79 0 137.09 0ZM138.99-30L138.99-30Q137.84-30 137.09-30.75 136.34-31.5 136.34-32.6L136.34-32.6Q136.34-33.75 137.09-34.5 137.84-35.25 138.99-35.25L138.99-35.25Q140.04-35.25 140.81-34.5 141.59-33.75 141.59-32.6L141.59-32.6Q141.59-31.5 140.81-30.75 140.04-30 138.99-30ZM147.09-25L150.84-25 150.84-32 154.59-32 154.59-25 161.24-25 161.24-21.5 154.59-21.5 154.59-8.05Q154.59-5.75 155.56-4.7 156.54-3.65 158.06-3.45 159.59-3.25 161.24-3.45L161.24-3.45 161.24-0.2Q159.29 0.25 157.41 0.05 155.54-0.15 154.06-1.07 152.59-2 151.71-3.7 150.84-5.4 150.84-8.05L150.84-8.05 150.84-21.5 147.09-21.5 147.09-25ZM166.83 0L166.83-36 170.58-36 170.58-21.6Q171.78-23.4 173.83-24.38 175.88-25.35 178.43-25.35L178.43-25.35Q181.18-25.35 183.33-24.1 185.48-22.85 186.71-20.4 187.93-17.95 187.93-14.3L187.93-14.3 187.93 0 183.93 0 183.93-13.85Q183.93-17.75 182.28-19.83 180.63-21.9 177.48-21.9L177.48-21.9Q174.23-21.9 172.41-19.7 170.58-17.5 170.58-13.3L170.58-13.3 170.58 0 166.83 0ZM214.28 0L210.83 0 210.53-4.5Q209.48-2.2 207.43-0.93 205.38 0.35 202.23 0.35L202.23 0.35Q199.53 0.35 197.63-0.5 195.73-1.35 194.71-2.93 193.68-4.5 193.68-6.65L193.68-6.65Q193.68-9.8 196.03-11.83 198.38-13.85 202.83-14.3L202.83-14.3 210.53-15.15 210.53-17.15Q210.53-19.25 208.98-20.53 207.43-21.8 204.78-21.8L204.78-21.8Q202.18-21.8 200.46-20.6 198.73-19.4 198.08-17.15L198.08-17.15 194.68-18.35Q195.68-21.65 198.36-23.5 201.03-25.35 204.88-25.35L204.88-25.35Q209.33-25.35 211.81-23.08 214.28-20.8 214.28-16.9L214.28-16.9 214.28 0ZM210.53-11.15L210.53-11.95 202.78-11.05Q200.28-10.75 198.98-9.68 197.68-8.6 197.68-6.85L197.68-6.85Q197.68-5.1 198.96-4.05 200.23-3 202.63-3L202.63-3Q205.38-3 207.13-4.1 208.88-5.2 209.71-7.08 210.53-8.95 210.53-11.15L210.53-11.15Z" opacity="1" transform="matrix(1,0,0,1,0,0)" fill="#ffffff" class="wordmark-text-0" data-fill-palette-color="primary" id="text-0"></path></svg></g></svg></g></svg></g></svg></g></svg></g></svg></g></svg></g></svg></g><defs></defs></svg><rect width="320" height="360" fill="none" stroke="none" visibility="hidden"></rect></g></svg></g></svg>